# Blender v3.0.1 OBJ File: 'Coffee_Drop.blend'
# www.blender.org
mtllib Coffee_Drop.mtl
o Coffee_Drop_Cylinder.001
v -0.000949 0.016740 0.001339
v -0.000560 0.027431 0.000812
v -0.001186 0.016740 -0.000504
v -0.000624 0.027431 0.000318
v 0.000882 0.016740 0.001022
v -0.000069 0.027431 0.000727
v -0.001254 0.002663 0.001752
v -0.001628 0.002663 -0.001150
v 0.001629 0.002663 0.001254
v -0.000832 -0.000207 0.001180
v -0.001017 -0.000207 -0.000257
v 0.000596 -0.000207 0.000933
vt 0.290407 0.384464
vt 0.326575 0.000000
vt 0.344578 0.000892
vt 0.357506 0.387790
vt 0.146161 0.611290
vt 0.132460 0.998692
vt 0.107558 1.000000
vt 0.053353 0.616164
vt 0.375515 0.052389
vt 0.375515 0.070415
vt 0.357506 0.069637
vt 0.251833 0.611355
vt 0.238906 0.998253
vt 0.220902 0.999145
vt 0.184734 0.614680
vt 0.146161 0.107678
vt 0.251833 0.102441
vt 0.159548 0.002593
vt 0.211873 0.000000
vt 0.000000 0.109631
vt 0.146161 0.101955
vt 0.357506 0.896704
vt 0.251833 0.891466
vt 0.409846 0.052389
vt 0.357506 0.050128
vt 0.409846 0.000000
vt 0.031437 0.003801
vt 0.103810 0.000000
vt 0.317546 0.999145
vt 0.265221 0.996551
vn -0.5931 0.0485 0.8036
vn -0.4760 0.5977 0.6450
vn -0.4096 0.5810 -0.7033
vn -0.5058 0.0732 -0.8595
vn 0.7928 0.5810 0.1841
vn 0.9704 0.0732 0.2300
vn -0.5910 -0.0970 0.8008
vn 0.9626 -0.1362 0.2339
vn -0.4436 -0.6647 0.6011
vn 0.7187 -0.6779 0.1546
vn -0.5072 -0.1362 -0.8509
vn -0.3596 -0.6779 -0.6412
usemtl Coffee
s 1
f 1/1/1 2/2/2 4/3/3 3/4/4
f 3/5/4 4/6/3 6/7/5 5/8/6
f 4/9/3 2/10/2 6/11/5
f 5/12/6 6/13/5 2/14/2 1/15/1
f 5/12/6 1/15/1 7/16/7 9/17/8
f 9/17/8 7/16/7 10/18/9 12/19/10
f 3/5/4 5/8/6 9/20/8 8/21/11
f 1/1/1 3/4/4 8/22/11 7/23/7
f 10/24/9 11/25/12 12/26/10
f 8/21/11 9/20/8 12/27/10 11/28/12
f 7/23/7 8/22/11 11/29/12 10/30/9
